<svg width="36" height="35" viewBox="0 0 36 35" fill="none" xmlns="http://www.w3.org/2000/svg">
<path d="M29.7801 8.80755H14.0352C13.6454 7.64575 12.5483 6.80908 11.2553 6.80908C9.96242 6.80908 8.8647 7.64575 8.47488 8.80755H6.21947C5.96665 8.80755 5.73617 8.91103 5.56978 9.07801C5.4028 9.24499 5.29932 9.47489 5.29932 9.72771C5.29932 10.2339 5.71383 10.6479 6.21947 10.6479H8.46665C8.84823 11.8232 9.95242 12.6728 11.2553 12.6728C12.5583 12.6728 13.6619 11.8232 14.0434 10.6479H29.7801C30.0336 10.6479 30.2634 10.5444 30.4298 10.3774C30.5968 10.211 30.7003 9.98053 30.7003 9.72771C30.7003 9.22148 30.2864 8.80755 29.7801 8.80755ZM11.8733 10.6479C11.6975 10.7678 11.4846 10.8384 11.2553 10.8384C11.026 10.8384 10.8132 10.7678 10.6368 10.6479C10.3475 10.4503 10.157 10.1175 10.157 9.74064C10.157 9.34671 10.3652 9.0004 10.6774 8.80696C10.8455 8.7029 11.0437 8.64292 11.2553 8.64292C11.467 8.64292 11.6651 8.7029 11.8333 8.80696C12.1455 9.0004 12.3536 9.34612 12.3536 9.74064C12.3531 10.1175 12.1626 10.4503 11.8733 10.6479Z" fill="black"/>
<path d="M29.7801 16.5796H27.533C27.1514 15.4043 26.0472 14.5547 24.7443 14.5547C23.4414 14.5547 22.3378 15.4043 21.9562 16.5796H6.21947C5.96606 16.5796 5.73617 16.6831 5.56978 16.8501C5.4028 17.0165 5.29932 17.247 5.29932 17.4998C5.29932 18.006 5.71324 18.4199 6.21947 18.4199H21.9644C22.3542 19.5817 23.4514 20.4184 24.7443 20.4184C26.0372 20.4184 27.1349 19.5817 27.5247 18.4199H29.7801C30.033 18.4199 30.2634 18.3164 30.4298 18.1495C30.5968 17.9825 30.7003 17.7526 30.7003 17.4998C30.7003 16.9935 30.2858 16.5796 29.7801 16.5796ZM25.3222 18.4199C25.1541 18.524 24.9559 18.584 24.7443 18.584C24.5326 18.584 24.3345 18.524 24.1663 18.4199C23.8541 18.2265 23.646 17.8808 23.646 17.4862C23.646 17.1094 23.8359 16.7766 24.1257 16.579C24.3015 16.4591 24.5144 16.3885 24.7437 16.3885C24.973 16.3885 25.1858 16.4591 25.3622 16.579C25.6515 16.7766 25.842 17.1094 25.842 17.4862C25.842 17.8808 25.6345 18.2265 25.3222 18.4199Z" fill="black"/>
<path d="M29.7801 24.3256H17.8481C17.4583 23.1638 16.3612 22.3271 15.0682 22.3271C13.7753 22.3271 12.6776 23.1638 12.2878 24.3256H6.21947C5.96606 24.3256 5.73617 24.4291 5.56978 24.5961C5.4028 24.7625 5.29932 24.993 5.29932 25.2458C5.29932 25.752 5.71324 26.1659 6.21947 26.1659H12.279C12.6606 27.3413 13.7647 28.1909 15.0677 28.1909C16.3706 28.1909 17.4742 27.3413 17.8558 26.1659H29.7801C30.0336 26.1659 30.2634 26.0624 30.4298 25.8955C30.5968 25.7291 30.7003 25.4986 30.7003 25.2458C30.7003 24.7395 30.2858 24.3256 29.7801 24.3256ZM15.0677 26.3564C14.8384 26.3564 14.6255 26.2859 14.4491 26.1659C14.1599 25.9684 13.9694 25.6356 13.9694 25.2587C13.9694 24.8648 14.1775 24.5185 14.4897 24.325C14.6573 24.221 14.8554 24.161 15.0677 24.161C15.2793 24.161 15.4775 24.221 15.6456 24.325C15.9578 24.5185 16.166 24.8642 16.166 25.2587C16.166 25.6356 15.9761 25.9684 15.6862 26.1659C15.5098 26.2859 15.297 26.3564 15.0677 26.3564Z" fill="black"/>
</svg>
