<svg width="62" height="62" viewBox="0 0 62 62" fill="none" xmlns="http://www.w3.org/2000/svg">
<path d="M53.4461 58.9283C54.9593 60.4415 57.4122 60.4415 58.9254 58.9283C60.4386 57.4151 60.4386 54.9603 58.9254 53.4481L48.8484 43.3711C47.2926 45.4481 45.4452 47.2946 43.3682 48.8504L53.4461 58.9283Z" fill="#45AAB8"/>
<path d="M27.1251 1.93555C13.2148 1.93555 1.9375 13.2128 1.9375 27.1232C1.9375 41.0336 13.2148 52.3108 27.1251 52.3108C41.0355 52.3108 52.3128 41.0336 52.3128 27.1232C52.3128 13.2128 41.0355 1.93555 27.1251 1.93555ZM27.1251 50.3733C14.2843 50.3733 3.87501 39.9641 3.87501 27.1232C3.87501 14.2823 14.2843 3.87306 27.1251 3.87306C39.966 3.87306 50.3753 14.2823 50.3753 27.1232C50.3753 39.9641 39.966 50.3733 27.1251 50.3733Z" fill="#F76D57"/>
<path d="M60.2973 52.0774L49.9665 41.7466C52.6742 37.5257 54.2503 32.5114 54.2503 27.1252C54.2503 12.1443 42.106 0 27.1252 0C12.1443 0 0 12.1443 0 27.1252C0 42.106 12.1443 54.2503 27.1252 54.2503C32.5114 54.2503 37.5257 52.6742 41.7466 49.9665L52.0774 60.2973C54.3482 62.5681 58.0275 62.5681 60.2973 60.2973C62.5671 58.0265 62.5681 54.3482 60.2973 52.0774ZM27.1252 52.3128C13.2148 52.3128 1.93751 41.0355 1.93751 27.1252C1.93751 13.2148 13.2148 1.93751 27.1252 1.93751C41.0355 1.93751 52.3128 13.2148 52.3128 27.1252C52.3128 41.0355 41.0355 52.3128 27.1252 52.3128ZM58.9275 58.9275C57.4143 60.4407 54.9604 60.4407 53.4482 58.9275L43.3702 48.8495C45.4482 47.2937 47.2947 45.4463 48.8505 43.3702L58.9275 53.4472C60.4416 54.9594 60.4416 57.4143 58.9275 58.9275Z" fill="#323232"/>
<path d="M27.1251 3.87305C14.2843 3.87305 3.875 14.2823 3.875 27.1232C3.875 39.964 14.2843 50.3733 27.1251 50.3733C39.966 50.3733 50.3753 39.964 50.3753 27.1232C50.3753 14.2823 39.966 3.87305 27.1251 3.87305ZM27.1251 48.4358C15.3548 48.4358 5.81251 38.8936 5.81251 27.1232C5.81251 15.3528 15.3548 5.81056 27.1251 5.81056C38.8955 5.81056 48.4378 15.3528 48.4378 27.1232C48.4378 38.8936 38.8955 48.4358 27.1251 48.4358Z" fill="#323232"/>
</svg>
